<?xml version="1.0" standalone="no"?>
<!DOCTYPE svg PUBLIC "-//W3C//DTD SVG 20010904//EN"
 "http://www.w3.org/TR/2001/REC-SVG-20010904/DTD/svg10.dtd">
<svg version="1.0" xmlns="http://www.w3.org/2000/svg"
 width="359.000000pt" height="359.000000pt" viewBox="0 0 359.000000 359.000000"
 preserveAspectRatio="xMidYMid meet">
<metadata>
Created by potrace 1.11, written by Peter Selinger 2001-2013
</metadata>
<g transform="translate(0.000000,359.000000) scale(0.100000,-0.100000)"
fill="#000000" stroke="none">
<path d="M1 3314 l1 -275 48 5 c33 3 50 1 54 -7 2 -7 5 -5 5 5 1 9 5 20 11 23
6 4 7 -1 3 -12 -3 -10 -3 -15 2 -11 4 4 14 0 22 -8 8 -8 23 -12 33 -9 10 3 21
1 25 -5 4 -7 18 -9 31 -6 17 5 26 2 30 -9 4 -8 14 -15 23 -15 14 0 14 2 1 10
-9 6 -10 10 -3 10 6 0 15 -4 18 -10 7 -11 41 -8 52 5 5 4 3 5 -3 2 -6 -3 -11
0 -11 8 0 12 3 12 15 2 8 -6 17 -10 19 -9 3 2 8 0 11 -4 4 -4 1 -4 -7 1 -9 5
-12 4 -7 -3 9 -15 82 -8 78 7 -1 7 2 10 8 6 6 -3 7 -11 4 -17 -5 -7 -1 -9 9
-5 9 3 19 2 22 -3 3 -5 13 -6 22 -3 13 5 15 2 10 -11 -12 -30 4 -41 23 -16 9
12 30 24 46 26 15 1 33 10 40 18 6 9 14 16 18 16 11 0 126 123 141 152 8 15
23 29 34 33 28 9 45 31 30 41 -8 5 -9 3 -4 -6 6 -9 4 -11 -5 -5 -9 6 -11 4 -5
-5 5 -9 4 -11 -4 -6 -8 6 -9 12 -2 20 6 7 7 17 3 22 -4 4 1 3 10 -5 20 -15 58
1 58 24 0 8 8 14 18 13 43 -3 64 2 59 16 -4 10 -1 13 9 9 8 -3 14 -1 12 3 -4
13 38 65 46 57 3 -3 6 -1 6 5 0 7 7 12 16 12 8 0 12 5 9 10 -5 8 -11 7 -21 -1
-16 -13 -30 -6 -20 10 4 5 16 7 29 4 48 -13 116 -14 138 -3 23 11 23 10 5 -4
-19 -16 -19 -16 1 -16 12 0 23 3 25 8 2 4 22 20 46 36 47 32 50 40 25 55 -23
13 -7 14 17 1 15 -8 22 -6 34 11 8 12 19 18 26 14 9 -5 10 -1 4 16 -4 13 -7
30 -7 36 0 10 -154 13 -694 13 l-694 0 2 -276z m1309 166 c0 -5 -5 -10 -11
-10 -5 0 -7 5 -4 10 3 6 8 10 11 10 2 0 4 -4 4 -10z m-550 -333 c0 -5 -5 -5
-12 -1 -8 5 -9 2 -5 -9 9 -24 0 -21 -14 4 -8 17 -8 20 1 14 9 -5 10 -1 5 16
-7 23 -7 24 9 4 8 -11 16 -24 16 -28z m-672 -62 c2 -23 -1 -25 -36 -23 -37 1
-37 1 -4 5 33 4 45 22 15 24 -15 0 -15 2 2 9 11 5 20 9 20 9 0 1 2 -10 3 -24z
m403 -62 c-12 -20 -14 -14 -5 12 4 9 9 14 11 11 3 -2 0 -13 -6 -23z m119 -30
c0 -8 -38 17 -51 33 -9 11 -2 9 19 -6 17 -13 32 -25 32 -27z m-186 19 c3 -5
-1 -9 -9 -9 -8 0 -12 4 -9 9 3 4 7 8 9 8 2 0 6 -4 9 -8z m96 -2 c0 -5 -4 -10
-10 -10 -5 0 -10 5 -10 10 0 6 5 10 10 10 6 0 10 -4 10 -10z m30 6 c0 -3 -4
-8 -10 -11 -5 -3 -10 -1 -10 4 0 6 5 11 10 11 6 0 10 -2 10 -4z m-2 -41 c-6
-14 -13 -23 -15 -21 -5 5 15 46 22 46 3 0 -1 -11 -7 -25z"/>
<path d="M1773 3540 c-32 -28 -80 -72 -108 -99 -57 -55 -83 -65 -107 -40 -9
10 -15 19 -13 21 2 2 -8 4 -23 5 -26 2 -26 2 -4 -8 24 -9 22 -29 -4 -29 -8 0
-12 -4 -9 -10 3 -5 0 -7 -9 -4 -12 5 -14 0 -10 -22 3 -16 2 -25 -2 -21 -13 12
-13 64 0 64 6 0 20 1 31 2 17 3 17 4 -5 10 -27 8 -64 -4 -55 -19 3 -5 1 -11
-5 -15 -14 -9 -12 -25 3 -25 8 0 14 -6 14 -14 0 -12 -5 -11 -26 2 -14 9 -23
12 -18 7 4 -4 0 -16 -8 -25 -13 -14 -13 -17 0 -17 8 0 12 4 9 9 -3 4 0 8 5 8
6 0 11 -4 11 -10 0 -5 7 -7 16 -3 13 5 15 2 9 -18 -4 -13 -13 -31 -20 -39 -14
-15 -15 -19 -15 -44 0 -7 -11 -25 -25 -40 -14 -15 -32 -40 -40 -55 -18 -36
-36 -113 -24 -105 5 3 4 -7 -1 -21 -6 -15 -10 -99 -10 -189 0 -141 2 -167 20
-201 25 -49 50 -135 50 -172 0 -28 6 -41 47 -104 20 -30 23 -47 23 -134 0 -69
4 -107 14 -120 21 -31 46 -142 45 -197 -1 -27 -6 -44 -10 -37 -4 7 -5 19 -1
27 4 12 -1 14 -21 10 -15 -3 -27 -2 -27 2 0 4 -17 11 -37 15 -56 11 -183 16
-183 7 0 -16 -156 10 -224 37 -16 7 -36 9 -43 6 -8 -3 -21 2 -29 10 -9 8 -11
15 -5 15 6 0 11 7 11 15 0 8 5 15 10 15 6 0 10 24 10 53 0 47 -4 56 -41 95
-22 23 -38 42 -34 42 3 0 1 9 -5 20 -9 16 -8 20 7 21 10 1 22 1 27 0 4 -1 14
3 21 9 10 8 15 8 21 -1 4 -8 3 -9 -5 -5 -20 12 -25 -24 -6 -42 13 -13 16 -13
9 -2 -7 13 -5 13 9 2 9 -8 21 -11 28 -7 8 6 7 10 -2 16 -11 7 -9 9 6 10 l20 0
-20 9 c-11 5 -15 9 -9 9 6 1 11 10 10 21 0 11 -5 20 -11 20 -5 -1 -9 -8 -8
-17 1 -11 -2 -12 -10 -4 -7 7 -6 15 3 26 11 13 9 19 -9 39 -23 25 -21 24 -102
31 -55 5 -58 4 -97 -32 l-40 -38 -1 -90 c-1 -49 -4 -120 -7 -157 -6 -59 -9
-66 -24 -58 -9 5 -33 7 -53 4 -20 -2 -37 0 -37 5 0 5 -7 12 -16 15 -15 6 -15
4 -3 -11 13 -17 13 -17 -7 0 -22 19 -60 22 -84 7 -10 -6 -20 -5 -30 4 -8 7
-50 16 -92 20 -71 5 -78 4 -88 -14 -6 -11 -8 -25 -5 -30 3 -6 2 -10 -3 -10
-13 0 -10 -33 3 -42 7 -5 7 -8 0 -8 -6 0 -10 -24 -10 -55 1 -43 -2 -54 -13
-50 -7 3 -18 5 -24 5 -5 0 -2 7 7 16 15 15 15 18 -1 35 -9 11 -12 19 -6 19 6
0 13 -6 15 -12 3 -7 3 3 0 23 -3 20 -1 45 5 55 13 22 -3 73 -30 97 -13 11 -37
17 -67 17 -26 0 -56 7 -67 15 -20 15 -59 21 -50 7 3 -5 -8 -6 -25 -4 l-29 4 0
-480 0 -479 48 -7 c83 -11 121 -13 116 -5 -3 5 4 27 15 49 10 22 15 37 10 34
-6 -3 -8 21 -7 60 2 36 8 66 13 66 6 0 3 5 -5 10 -12 7 -12 12 -2 22 6 6 12
27 12 46 0 18 3 31 8 29 4 -3 7 21 6 54 -1 32 3 59 8 59 4 0 8 5 8 11 0 5 -3
8 -7 6 -5 -3 -9 8 -10 24 -1 16 2 29 7 29 6 0 10 7 10 16 0 9 -5 12 -12 8 -7
-4 -8 -3 -4 4 4 7 14 12 22 12 9 0 12 5 8 12 -4 7 -3 8 4 4 8 -5 9 -13 3 -24
-5 -9 -5 -26 -1 -37 4 -11 4 -32 -1 -47 -4 -14 -5 -29 -2 -32 3 -3 7 -18 8
-35 2 -20 -2 -28 -10 -25 -7 3 -11 -4 -10 -18 3 -32 -5 -49 -19 -41 -6 4 -5 0
2 -9 8 -9 12 -25 10 -35 -1 -10 1 -24 6 -32 6 -9 5 -12 -2 -7 -6 4 -11 -1 -11
-11 0 -10 -2 -34 -5 -53 -20 -119 -21 -260 -4 -260 4 0 4 -10 0 -22 -5 -13 -7
-38 -5 -57 3 -36 8 -35 -67 -17 -8 2 -21 -1 -28 -7 -9 -7 -11 -5 -5 8 5 14 3
17 -9 13 -9 -4 -21 -1 -28 5 -10 9 -9 6 0 -13 13 -24 12 -24 -5 -10 -17 13
-18 13 -13 -1 3 -9 1 -16 -6 -16 -6 0 -12 8 -12 18 0 10 4 15 8 13 4 -3 8 0 8
5 0 14 -37 14 -45 1 -4 -6 -1 -18 7 -27 8 -11 9 -14 1 -10 -9 6 -12 -63 -13
-303 0 -297 1 -311 20 -330 11 -11 16 -20 12 -20 -4 0 -13 5 -19 11 -7 7 -11
-24 -11 -110 -1 -113 1 -121 19 -121 10 0 19 6 19 13 0 8 4 7 10 -3 9 -13 11
-13 20 0 9 13 10 13 11 0 0 -10 3 -8 9 5 6 15 9 16 9 4 1 -16 31 -23 31 -7 0
4 -5 8 -10 8 -6 0 -5 11 4 28 10 19 11 33 4 45 -6 12 -6 28 0 46 5 15 10 45
10 67 0 21 1 44 2 49 1 6 3 30 4 55 5 92 6 96 16 80 7 -11 10 -11 10 -2 0 7 4
11 9 8 4 -3 17 1 27 9 18 15 18 15 -1 8 -20 -7 -20 -7 -2 21 15 22 16 31 6 40
-9 8 -10 8 -4 -3 6 -10 4 -12 -4 -7 -7 5 -12 20 -11 34 3 42 1 54 -9 48 -5 -4
-8 2 -6 11 2 10 4 22 4 26 1 5 6 5 13 1 7 -4 8 -3 4 5 -4 6 -12 9 -17 6 -5 -4
-9 10 -9 29 0 19 4 37 9 40 5 3 7 24 4 45 -5 33 -2 41 16 50 14 8 21 8 21 1 0
-5 -5 -10 -11 -10 -7 0 -9 -8 -4 -23 6 -19 9 -40 14 -92 1 -5 6 -3 11 5 6 9
10 10 10 3 0 -6 -4 -15 -10 -18 -5 -3 -10 -12 -10 -18 0 -7 4 -6 10 3 14 22
13 -35 -1 -62 -8 -15 -8 -19 0 -14 6 4 11 2 11 -3 0 -6 4 -11 10 -11 5 0 7 7
4 15 -4 10 0 13 16 10 13 -2 25 -7 29 -11 3 -4 -1 -5 -9 -2 -9 3 -23 -5 -33
-18 -18 -24 -11 -34 10 -13 8 8 11 4 10 -14 -2 -17 -6 -22 -13 -16 -16 13 -26
-2 -11 -19 9 -13 9 -14 0 -8 -7 4 -13 2 -13 -3 0 -6 7 -11 17 -11 9 0 13 -3
10 -7 -4 -3 -1 -13 5 -22 8 -10 4 -9 -9 3 -23 19 -30 14 -37 -26 -1 -7 -6 -19
-10 -27 -6 -9 -5 -12 1 -8 6 4 14 0 17 -8 4 -10 -3 -19 -18 -26 -22 -10 -23
-13 -8 -30 9 -10 17 -28 19 -41 2 -17 1 -19 -6 -8 -5 8 -7 18 -5 22 3 4 -2 8
-11 8 -9 0 -13 -5 -10 -10 3 -6 -1 -13 -10 -16 -13 -6 -14 -8 -3 -15 9 -6 10
-9 1 -9 -7 0 -10 -7 -6 -16 3 -8 12 -13 19 -10 8 3 13 2 13 -2 -3 -20 3 -21
26 -6 14 9 22 20 19 25 -3 5 0 9 5 9 6 0 11 -6 11 -12 0 -7 14 14 30 47 28 55
29 60 13 67 -12 4 -6 7 18 7 39 1 59 16 59 43 0 10 16 28 35 40 19 13 35 31
35 40 0 9 5 20 12 24 7 4 8 3 4 -4 -4 -7 -2 -12 3 -12 6 0 11 5 11 10 0 6 5
10 12 10 7 0 24 12 39 26 22 21 39 27 82 29 54 3 112 25 112 42 0 4 27 9 60
10 74 1 163 11 190 20 11 3 36 8 55 9 19 2 52 5 72 7 20 2 44 9 52 17 9 7 16
9 16 4 0 -5 5 -2 10 6 7 11 5 17 -8 21 -12 5 -6 10 23 17 22 6 45 12 50 13 6
0 18 5 28 11 30 16 70 20 62 7 -6 -8 -2 -8 12 -1 11 6 34 9 51 6 42 -7 120 29
132 61 6 15 27 32 55 45 42 19 65 40 28 26 -10 -4 -14 -4 -10 0 4 4 1 14 -5
23 -7 9 -8 13 -4 9 5 -4 15 -3 23 4 7 6 40 12 72 12 34 1 66 8 76 16 9 8 34
13 57 11 26 -1 37 2 33 9 -8 13 46 82 79 100 25 13 26 17 26 106 l0 93 51 -30
c29 -16 77 -43 108 -58 31 -16 73 -45 93 -65 20 -20 42 -36 48 -36 5 0 10 -4
10 -10 0 -5 19 -14 43 -20 23 -6 59 -18 79 -27 30 -13 57 -15 128 -10 49 4 90
3 90 -1 0 -5 14 -7 30 -4 17 2 37 -1 44 -7 13 -11 201 -32 190 -22 -6 6 76 28
130 36 22 3 47 12 55 19 40 37 101 41 101 7 0 -17 23 16 36 52 9 24 36 21 70
-8 16 -14 32 -25 37 -25 4 0 7 -7 7 -15 0 -20 38 -57 50 -50 6 4 10 1 10 -5 0
-18 37 7 43 30 3 11 2 18 -2 16 -4 -3 -7 38 -7 90 0 52 3 94 6 94 10 0 4 184
-7 210 -7 16 -7 27 -1 31 14 9 12 20 -4 30 -19 12 -13 409 7 424 20 16 87 9
102 -11 18 -24 27 -82 16 -97 -8 -9 -9 -97 -2 -192 0 -5 -2 -23 -6 -39 -3 -16
-7 -65 -9 -108 -1 -42 -5 -80 -8 -84 -4 -3 -3 -17 3 -31 6 -16 6 -22 -1 -18
-7 4 -7 -2 0 -19 5 -14 6 -35 3 -48 -3 -13 -5 -57 -4 -98 1 -41 -4 -92 -10
-112 -10 -30 -9 -41 2 -55 12 -15 12 -16 -1 -8 -11 6 -12 5 -4 -4 6 -7 18 -13
25 -15 8 -1 24 -7 36 -14 12 -7 24 -12 28 -12 3 0 4 179 1 398 -6 525 -6 622
0 784 l5 138 -35 -21 c-19 -11 -39 -18 -45 -15 -5 3 -14 -1 -21 -9 -7 -8 -16
-12 -21 -9 -5 3 -19 -2 -31 -10 -38 -27 -41 -20 -33 57 4 39 8 82 9 95 1 12 4
22 7 22 3 0 5 35 3 78 -3 100 12 240 28 260 11 13 11 14 -2 7 -13 -8 -13 -7
-1 8 15 19 23 167 9 167 -5 0 -5 8 0 18 4 9 8 53 7 98 l-1 81 -62 82 c-34 45
-62 85 -62 88 0 3 -24 36 -54 72 -29 36 -68 93 -86 126 -36 66 -68 105 -84
105 -6 0 -29 14 -50 30 l-40 30 -598 0 -598 0 -57 -50z m-223 -155 c-7 -8 -17
-15 -23 -15 -6 0 -2 7 9 15 25 19 30 19 14 0z m1159 -242 c25 -9 62 -17 81
-18 41 -2 110 -23 110 -33 0 -4 44 -7 98 -8 177 -1 265 -33 287 -105 4 -13 12
-30 17 -36 6 -7 12 -65 13 -129 3 -104 6 -119 28 -152 22 -32 26 -48 26 -122
1 -47 3 -116 5 -155 3 -41 0 -77 -7 -90 -6 -11 -10 -24 -8 -30 10 -27 6 -461
-3 -467 -7 -5 -7 -8 -1 -8 17 0 6 -269 -12 -303 -8 -16 -12 -31 -10 -34 10
-10 -68 -179 -93 -201 -12 -11 -12 -12 -1 -6 8 4 -1 -15 -20 -42 -19 -27 -37
-50 -41 -52 -5 -2 -8 -8 -8 -12 0 -13 -61 -74 -95 -95 -27 -17 -80 -31 -209
-55 -58 -11 -117 -5 -155 14 -28 15 -156 24 -168 13 -20 -21 -150 5 -168 33
-4 6 -10 8 -15 5 -5 -3 -11 -1 -15 5 -4 6 -11 8 -16 4 -12 -7 -50 17 -87 55
-15 15 -74 52 -132 83 -68 36 -112 66 -125 85 -11 17 -32 35 -47 41 -16 6 -36
25 -45 43 -10 18 -26 40 -35 51 -10 10 -18 22 -18 27 0 5 -7 11 -15 15 -8 3
-15 12 -15 21 0 13 -4 14 -22 4 -28 -15 -101 -22 -93 -9 3 5 -1 7 -9 4 -18 -7
-39 30 -31 55 3 11 -3 34 -15 54 -19 32 -21 81 -5 107 2 3 -9 18 -25 33 -22
21 -28 35 -26 60 2 17 -6 47 -16 65 -10 18 -16 37 -13 42 3 5 1 11 -3 14 -5 3
-7 31 -5 61 3 43 -1 66 -16 96 -24 46 -30 168 -8 170 28 3 43 -3 63 -24 11
-12 27 -23 35 -25 22 -5 39 -33 39 -66 0 -17 9 -44 20 -61 11 -16 20 -24 20
-17 0 7 7 20 15 28 13 14 19 46 18 107 0 9 5 17 11 17 6 0 4 5 -4 10 -8 5 -10
10 -4 10 13 0 9 34 -12 102 -12 36 -13 52 -4 68 6 12 8 29 4 38 -12 30 -7 144
8 153 8 6 9 9 1 9 -14 0 -8 103 7 108 6 2 7 8 4 13 -3 6 0 16 6 24 7 8 9 15 4
15 -5 0 0 7 10 15 11 8 14 15 8 15 -17 0 -6 62 14 77 8 6 15 14 15 17 -3 20 0
26 9 21 6 -4 9 -3 8 2 -6 17 24 71 41 76 10 2 38 1 62 -2 72 -11 130 -4 144
16 12 17 37 45 88 102 27 29 84 54 100 44 16 -10 247 -10 240 0 -3 6 45 12 70
8 4 0 7 3 7 7 0 15 93 12 139 -5z m-1737 -869 c-9 -16 -10 -14 -9 8 1 15 6 23
11 18 4 -4 4 -16 -2 -26z m-188 -1 c4 -10 4 -14 0 -10 -4 4 -14 1 -22 -6 -13
-11 -14 -9 -1 11 17 26 15 26 23 5z m3 -65 c-3 -8 -6 -5 -6 6 -1 11 2 17 5 13
3 -3 4 -12 1 -19z m-30 -210 c-3 -8 -6 -5 -6 6 -1 11 2 17 5 13 3 -3 4 -12 1
-19z m-489 -265 c-6 -7 -15 -13 -21 -13 -7 0 -7 4 1 12 7 7 12 21 13 33 0 20
0 20 8 0 5 -11 4 -25 -1 -32z m-8 -44 c-6 -10 -18 -18 -28 -18 -15 1 -15 2 1
6 13 3 15 8 8 17 -7 8 -5 12 10 13 16 2 17 -1 9 -18z m1414 -331 c-2 -59 -9
-82 -25 -73 -12 8 -12 102 1 110 6 4 7 11 4 17 -4 6 -1 9 7 6 10 -3 14 -21 13
-60z m-70 -67 c-9 -10 -26 18 -18 30 5 9 9 8 14 -7 4 -10 6 -21 4 -23z m296
-22 c0 -9 -7 -16 -15 -16 -10 0 -14 6 -10 14 3 8 5 22 5 31 0 15 2 15 10 2 5
-8 10 -22 10 -31z m-127 4 c-7 -2 -21 -2 -30 0 -10 3 -4 5 12 5 17 0 24 -2 18
-5z m-1226 -261 c80 1 128 -3 135 -10 19 -19 -10 -23 -177 -20 -116 2 -159 6
-163 16 -2 6 4 12 13 12 9 0 14 4 10 9 -3 6 7 6 27 0 18 -5 88 -8 155 -7z
m792 -46 c30 -19 -12 -26 -154 -26 -122 0 -154 3 -158 14 -3 8 -4 16 -2 18 7
6 302 1 314 -6z m345 -2 c31 -12 16 -24 -29 -24 -35 0 -43 3 -39 15 6 15 40
20 68 9z m146 -3 c0 -12 -20 -25 -27 -18 -7 7 6 27 18 27 5 0 9 -4 9 -9z
m-1637 -103 c-4 -7 -8 -19 -9 -26 -2 -8 -6 -17 -10 -20 -4 -4 -5 0 -1 9 3 9 0
22 -6 29 -9 10 -9 11 1 6 6 -4 12 -2 12 3 0 6 5 11 11 11 6 0 7 -5 2 -12z
m-71 -50 c-7 -7 -12 -8 -12 -2 0 14 12 26 19 19 2 -3 -1 -11 -7 -17z m-41 -11
c-10 -9 -11 -8 -5 6 3 10 9 15 12 12 3 -3 0 -11 -7 -18z m126 12 c-9 -6 -15
-14 -12 -20 4 -5 1 -9 -4 -9 -6 0 -11 4 -11 8 0 12 22 32 35 32 5 0 2 -5 -8
-11z m-136 -36 c13 -17 13 -17 -6 -3 -11 8 -22 16 -24 17 -2 2 0 3 6 3 6 0 17
-8 24 -17z m206 -23 c-2 -23 -10 -17 -12 10 -1 10 2 17 6 14 4 -2 7 -13 6 -24z
m28 1 c3 -5 2 -12 -3 -15 -5 -3 -9 1 -9 9 0 17 3 19 12 6z m145 3 c0 -8 -19
-13 -24 -6 -3 5 1 9 9 9 8 0 15 -2 15 -3z m106 -17 c0 -25 -21 -32 -43 -14
-10 7 -13 3 -13 -13 0 -13 -3 -21 -6 -17 -9 9 5 57 17 57 6 0 7 -4 4 -10 -3
-5 -1 -10 5 -10 6 0 13 7 16 15 9 23 20 18 20 -8z m-312 5 c3 -5 -1 -9 -9 -9
-8 0 -12 4 -9 9 3 4 7 8 9 8 2 0 6 -4 9 -8z m112 -16 c1 -7 -4 -13 -11 -13 -7
0 -11 7 -10 16 2 9 4 18 4 20 2 8 15 -10 17 -23z m419 6 c-3 -3 -11 0 -18 7
-9 10 -8 11 6 5 10 -3 15 -9 12 -12z m135 14 c0 -2 -8 -10 -17 -17 -16 -13
-17 -12 -4 4 13 16 21 21 21 13z m-165 -18 c5 4 5 2 2 -5 -8 -13 -47 -6 -47 9
0 5 8 4 19 -1 10 -6 22 -7 26 -3z m352 -3 c5 -4 2 -5 -4 -1 -7 4 -13 2 -13 -3
0 -6 -5 -11 -11 -11 -5 0 -8 4 -5 9 4 5 0 12 -6 15 -7 2 -3 4 9 2 12 -1 26 -6
30 -11z m-643 -6 c3 -3 -5 -5 -19 -5 -13 0 -22 3 -19 7 4 8 30 6 38 -2z m201
2 c3 -5 2 -12 -3 -15 -5 -3 -9 1 -9 9 0 17 3 19 12 6z m142 -6 c0 -8 -4 -12
-9 -9 -5 3 -6 10 -3 15 9 13 12 11 12 -6z m-482 -5 c-3 -5 -1 -10 6 -10 7 0
10 -2 8 -5 -3 -2 -16 -1 -29 2 -22 6 -23 7 -4 14 26 10 26 10 19 -1z m278 -5
c-3 -9 -8 -14 -10 -11 -3 3 -2 9 2 15 9 16 15 13 8 -4z m320 -8 c3 -8 -1 -14
-8 -14 -7 0 -11 6 -8 14 3 7 6 13 8 13 2 0 5 -6 8 -13z m114 7 c-3 -3 -12 -4
-19 -1 -8 3 -5 6 6 6 11 1 17 -2 13 -5z m-360 -26 c-3 -8 -6 -5 -6 6 -1 11 2
17 5 13 3 -3 4 -12 1 -19z m442 -21 c1 -5 -3 -5 -9 -2 -5 3 -10 16 -9 28 0 21
1 21 9 2 5 -11 9 -24 9 -28z m-55 24 c4 -5 -3 -7 -14 -4 -23 6 -26 13 -6 13 8
0 17 -4 20 -9z m-335 -10 c10 -7 7 -9 -12 -8 -14 1 -23 5 -20 10 6 9 15 9 32
-2z m-424 -30 c-6 -5 -25 10 -25 20 0 5 6 4 14 -3 8 -7 12 -15 11 -17z m-25
-31 c0 -5 -2 -10 -4 -10 -3 0 -8 5 -11 10 -3 6 -1 10 4 10 6 0 11 -4 11 -10z
m40 -46 c0 -3 -7 -1 -15 6 -8 7 -15 17 -15 22 0 5 7 3 15 -6 8 -8 15 -18 15
-22z m-1 -61 c-7 -20 -7 -29 1 -31 7 -3 4 -10 -7 -18 -17 -13 -17 -13 2 -14
17 0 17 -2 5 -10 -13 -8 -12 -10 3 -10 19 0 23 -15 7 -25 -6 -3 -13 1 -16 9
-3 9 -10 13 -15 10 -5 -3 -6 2 -3 10 4 10 1 16 -7 16 -9 1 -8 4 4 11 9 6 15
14 12 19 -5 9 11 60 20 60 2 0 0 -12 -6 -27z m-42 -180 c-4 -3 -1 -13 6 -22
11 -14 10 -14 -5 -2 -16 12 -16 31 -1 31 4 0 3 -3 0 -7z m-22 -33 c-3 -5 -12
-10 -18 -10 -7 0 -6 4 3 10 19 12 23 12 15 0z m12 -35 c-15 -16 -19 -13 -11 9
3 9 10 13 15 10 5 -3 3 -11 -4 -19z m26 -10 c-3 -9 -8 -14 -10 -11 -3 3 -2 9
2 15 9 16 15 13 8 -4z m-53 -55 c-6 -11 -13 -20 -16 -20 -2 0 0 9 6 20 6 11
13 20 16 20 2 0 0 -9 -6 -20z m-173 -96 c-3 -3 -12 -4 -19 -1 -8 3 -5 6 6 6
11 1 17 -2 13 -5z"/>
<path d="M3052 2693 c-12 -9 -39 -17 -60 -18 -20 -2 -37 -4 -37 -5 0 -1 -8 -3
-18 -5 -10 -2 -42 -22 -71 -44 -57 -44 -65 -71 -33 -103 9 -10 17 -25 17 -35
0 -15 1 -15 18 0 10 10 21 15 23 13 3 -3 13 8 24 24 23 34 51 47 114 55 24 3
49 9 55 14 6 5 31 7 56 4 25 -2 58 -4 74 -3 15 0 35 -5 43 -12 11 -9 16 -9 23
2 11 18 -31 91 -62 107 -39 20 -140 23 -166 6z"/>
<path d="M2170 2653 c0 -6 -25 -10 -56 -11 -39 0 -61 -5 -75 -18 -11 -10 -30
-19 -42 -19 -29 -2 -99 -35 -114 -55 -9 -12 -7 -20 13 -41 13 -14 24 -31 24
-37 0 -7 19 2 42 18 23 17 48 28 55 25 8 -2 12 -1 9 4 -3 5 5 11 19 13 14 3
25 1 25 -4 0 -4 10 -2 23 5 15 10 51 14 117 12 95 -1 147 -16 134 -37 -4 -6
-3 -8 3 -5 5 3 24 -3 41 -14 50 -30 70 -26 66 14 -2 17 -13 44 -25 60 -11 15
-17 33 -13 39 5 7 3 8 -5 3 -7 -4 -22 1 -34 13 -26 24 -77 46 -77 32 0 -12
-102 -11 -117 2 -8 7 -13 7 -13 1z"/>
<path d="M2747 2603 c-2 -5 -5 -37 -5 -72 -1 -35 -7 -69 -12 -76 -8 -9 -8 -15
0 -20 5 -3 10 -34 10 -68 -1 -34 10 -106 22 -160 l23 -97 46 -24 c65 -32 110
-66 104 -77 -4 -5 -1 -9 4 -9 6 0 11 -9 11 -20 0 -24 -36 -35 -93 -27 -52 7
-61 2 -77 -46 -11 -35 -15 -38 -39 -32 -14 4 -29 12 -33 18 -4 7 -11 17 -15
22 -17 21 -110 64 -98 45 3 -6 0 -10 -8 -10 -7 0 -24 -11 -37 -25 -34 -36 -96
-36 -110 1 -19 48 7 112 70 174 31 30 67 78 80 105 23 47 25 60 25 210 0 153
-1 160 -20 160 -19 0 -20 -7 -20 -145 0 -133 -2 -149 -24 -190 -34 -65 -81
-121 -94 -113 -7 3 -9 3 -5 -2 4 -4 -9 -28 -28 -53 -33 -43 -35 -50 -33 -115
2 -66 4 -70 33 -88 17 -10 39 -24 49 -31 10 -7 24 -12 32 -12 8 1 21 2 28 3 8
0 22 17 33 36 11 21 24 33 32 30 7 -2 10 0 7 5 -16 25 27 6 56 -25 56 -59 139
-61 155 -3 10 33 11 33 71 33 84 0 107 21 100 89 -3 32 -10 52 -22 58 -9 6
-26 19 -37 30 -11 11 -33 24 -49 30 -26 9 -28 12 -17 27 12 14 11 15 -5 2 -9
-8 -21 -11 -24 -7 -19 19 -34 118 -39 271 -4 94 -11 178 -16 188 -9 18 -24 22
-31 10z"/>
<path d="M3070 2489 c-14 -4 -39 -7 -56 -8 -33 -1 -94 -37 -102 -59 -2 -7 6
-16 18 -19 11 -3 19 -11 16 -18 -7 -20 63 -45 137 -49 37 -2 67 0 67 5 0 5 -7
9 -15 9 -21 0 -29 24 -15 49 15 29 25 26 49 -11 19 -30 21 -31 21 -10 0 20 3
21 21 11 15 -8 24 -8 32 0 18 18 -23 63 -71 79 -23 7 -42 18 -42 22 0 10 -23
9 -60 -1z"/>
<path d="M2060 2405 c-7 -8 -20 -15 -29 -15 -19 -1 -45 -20 -49 -38 -1 -7 19
-26 45 -42 27 -16 55 -35 63 -42 8 -7 16 -12 17 -10 2 1 4 2 6 1 24 -8 62 -7
78 2 14 7 24 8 28 1 4 -6 10 -6 16 2 11 13 12 33 0 59 -4 10 -3 23 3 29 15 15
65 -21 59 -43 -4 -15 0 -17 31 -12 26 5 33 3 27 -6 -4 -7 9 -2 29 11 53 34 47
52 -30 89 -61 29 -73 31 -153 28 -47 -2 -89 -8 -93 -13 -4 -6 -12 -5 -21 2
-11 10 -17 9 -27 -3z"/>
<path d="M3270 2389 c0 -23 -53 -81 -86 -95 -55 -23 -173 -18 -234 10 -28 13
-57 32 -64 42 -18 23 -55 28 -63 8 -7 -18 27 -53 75 -78 17 -9 35 -22 39 -29
10 -16 89 -40 103 -32 6 3 10 2 10 -3 0 -9 16 -9 82 2 29 5 76 34 133 84 42
38 55 93 23 100 -10 2 -18 -2 -18 -9z"/>
<path d="M2457 2267 c-36 -56 -156 -95 -342 -112 -60 -5 -75 -3 -103 15 -20
12 -30 25 -26 32 4 7 3 8 -4 4 -7 -4 -12 -2 -12 5 0 7 -3 9 -6 6 -4 -3 -15 5
-26 18 -22 28 -63 33 -72 9 -4 -11 1 -18 14 -21 11 -3 18 -8 16 -12 -6 -10 16
-35 44 -48 14 -7 38 -23 53 -35 25 -20 39 -23 125 -22 105 1 126 4 159 22 12
7 26 11 30 10 35 -8 171 71 194 113 21 40 -19 54 -44 16z"/>
<path d="M1592 2068 c-19 -24 -10 -66 19 -94 16 -15 29 -38 29 -51 0 -13 7
-38 16 -56 11 -20 18 -66 21 -132 3 -55 9 -104 13 -109 16 -16 30 5 30 45 0
21 2 39 5 39 18 0 55 -35 51 -47 -3 -8 -2 -11 3 -8 5 3 11 -7 13 -22 5 -43 32
-36 36 10 3 38 -7 54 -79 113 -17 14 -28 36 -33 64 -4 23 -13 55 -21 70 -8 15
-11 31 -7 35 10 10 10 55 -1 48 -13 -8 -46 27 -40 43 6 15 -22 64 -36 64 -5 0
-13 -6 -19 -12z"/>
<path d="M2930 1739 c0 -5 -7 -9 -16 -9 -8 0 -32 -10 -54 -22 -36 -21 -42 -22
-108 -10 -82 14 -117 4 -166 -48 -16 -16 -33 -30 -38 -30 -4 0 -16 -7 -25 -15
-52 -45 -83 -64 -116 -70 -38 -7 -53 -31 -45 -71 3 -18 78 -43 131 -44 16 0
59 -12 95 -27 58 -24 79 -27 153 -25 47 1 108 9 135 17 27 8 59 15 72 15 12 0
52 14 89 30 36 17 76 30 88 30 12 0 33 12 46 28 21 23 24 35 21 87 -3 69 -17
86 -105 128 -55 27 -157 50 -157 36z"/>
<path d="M3445 916 c16 -14 35 -22 44 -19 11 4 10 1 -4 -10 -10 -8 -25 -12
-33 -9 -9 3 -10 7 -3 12 7 4 1 11 -15 19 -25 11 -26 10 -14 -4 11 -13 10 -14
-5 -9 -13 5 -16 4 -11 -4 5 -8 2 -10 -9 -6 -13 5 -15 0 -13 -30 1 -25 6 -35
15 -32 7 3 15 1 18 -4 4 -6 0 -10 -7 -10 -7 0 -2 -7 10 -16 12 -8 27 -12 32
-9 6 3 10 -1 10 -9 0 -9 5 -16 11 -16 5 0 8 4 4 9 -3 5 -2 12 3 15 12 7 11
-27 0 -35 -5 -3 -1 -12 8 -20 10 -8 15 -9 11 -2 -4 6 -3 14 2 17 11 7 9 -13
-3 -33 -6 -10 -5 -12 3 -7 8 5 12 3 10 -5 -4 -32 2 -49 17 -49 14 0 14 -1 0
-16 -9 -8 -14 -20 -11 -25 4 -5 0 -9 -7 -9 -9 0 -9 -3 2 -10 8 -5 10 -10 4
-10 -14 0 -6 -47 9 -57 5 -3 7 -1 4 4 -4 6 0 14 9 17 22 9 31 7 16 -3 -10 -6
-8 -12 10 -23 l23 -15 3 82 c3 64 0 85 -12 98 -11 11 -12 17 -4 19 17 6 24
173 8 183 -7 4 -16 1 -21 -6 -7 -11 -9 -11 -9 3 0 22 -18 32 -55 31 -16 -1
-22 1 -12 4 9 2 15 9 12 14 -4 5 -14 5 -25 -1 -13 -7 -21 -7 -25 0 -3 5 -11
10 -17 10 -6 0 2 -11 17 -24z m88 -37 c-8 -8 -13 -7 -18 2 -5 8 -4 10 3 5 7
-4 12 -2 12 5 0 7 3 9 7 6 4 -4 2 -12 -4 -18z m-94 -22 c0 -9 -2 -8 -6 1 -2 6
-10 9 -15 6 -7 -4 -8 -2 -4 5 9 13 26 5 25 -12z m83 -74 c-6 -2 -9 -10 -6 -15
4 -7 2 -8 -5 -4 -13 9 -5 26 12 25 9 0 8 -2 -1 -6z m43 -13 c3 -6 -1 -7 -9 -4
-18 7 -21 14 -7 14 6 0 13 -4 16 -10z m-24 -17 c-10 -4 -8 -9 10 -20 13 -8 17
-12 8 -9 -9 2 -21 0 -26 -5 -6 -6 -9 -1 -7 13 3 30 2 28 17 27 8 0 8 -2 -2 -6z
m2 -70 c-7 -2 -19 -2 -25 0 -7 3 -2 5 12 5 14 0 19 -2 13 -5z"/>
<path d="M1768 859 c-21 -8 -26 -15 -23 -37 2 -15 2 -21 -1 -15 -4 9 -12 8
-32 -5 -26 -16 -26 -16 -13 1 15 19 9 22 -20 6 -11 -5 -17 -14 -14 -19 3 -5 0
-12 -6 -16 -8 -4 -9 -3 -5 4 4 7 3 12 -1 12 -5 0 -13 -8 -20 -19 -8 -13 -19
-17 -37 -14 -29 6 -35 -13 -13 -37 6 -8 1 -6 -12 5 -20 16 -23 17 -18 4 3 -9
0 -16 -6 -16 -7 0 -21 -1 -32 -2 -17 -1 -18 -3 -5 -11 9 -6 10 -10 3 -10 -6 0
-15 4 -18 10 -7 11 -45 -9 -45 -24 0 -5 3 -6 7 -3 3 4 12 2 20 -4 9 -9 13 -8
13 0 0 6 6 11 13 11 9 0 13 -11 12 -30 -1 -16 2 -27 7 -24 4 3 8 0 8 -5 0 -6
9 -11 20 -11 11 0 20 -5 20 -11 0 -5 5 -7 10 -4 6 3 10 2 10 -4 0 -5 -3 -11
-7 -14 -5 -2 -3 -2 4 -1 11 3 26 -11 29 -26 4 -22 19 -40 31 -40 13 0 13 -3 3
-16 -11 -12 -11 -15 0 -12 7 2 15 -3 17 -9 3 -7 -2 -13 -11 -13 -9 0 -16 -4
-16 -10 0 -5 6 -7 14 -4 7 3 16 -2 20 -11 3 -9 2 -14 -3 -11 -5 3 -12 -1 -15
-10 -9 -23 -8 -27 7 -21 9 3 13 -3 13 -16 -1 -12 8 -26 21 -32 15 -8 19 -15
12 -26 -7 -12 -9 -12 -9 0 0 8 -3 12 -6 9 -8 -9 24 -78 37 -78 9 0 9 -3 0 -14
-8 -10 -9 -16 -1 -21 6 -3 7 -11 4 -17 -4 -7 -2 -8 5 -4 6 4 8 13 5 19 -4 7
-3 9 1 4 5 -4 10 -17 11 -30 3 -34 9 -56 17 -63 4 -4 4 -17 1 -29 -3 -13 -1
-26 5 -30 6 -3 9 -10 6 -15 -3 -5 -1 -11 4 -14 5 -4 13 -1 17 5 5 8 3 9 -5 4
-10 -6 -11 -3 -2 14 14 25 23 28 14 3 -6 -14 -4 -15 8 -5 13 10 16 10 16 -2 0
-8 -4 -12 -8 -9 -10 6 -31 -31 -22 -39 11 -11 1473 -8 1473 3 0 6 5 9 11 7 6
-1 13 6 14 16 2 9 -3 17 -11 17 -12 0 -12 2 -2 14 8 8 15 10 19 4 4 -5 11 4
17 21 11 32 26 45 16 13 -5 -14 -4 -14 4 -2 6 8 9 17 6 21 -6 10 33 22 46 14
5 -3 10 -2 10 4 0 5 10 8 21 6 20 -4 21 -3 4 15 -16 17 -16 19 4 29 28 16 39
13 17 -4 -11 -8 -17 -17 -14 -20 3 -3 22 10 43 30 28 25 41 32 47 22 5 -8 8
-3 9 13 1 14 1 29 0 33 -1 5 3 6 9 2 6 -3 7 -12 4 -18 -5 -8 -2 -7 7 1 11 10
9 17 -16 38 -17 15 -29 30 -27 35 3 12 -32 11 -44 -1 -8 -8 -15 -5 -25 7 -13
17 -13 17 5 3 18 -14 19 -13 13 3 -4 10 -7 21 -7 23 0 3 -4 3 -9 -1 -10 -5 -8
18 5 57 4 15 3 18 -6 13 -9 -5 -11 -4 -6 4 6 9 11 9 22 0 17 -14 19 2 2 19 -7
7 -9 12 -5 12 4 0 3 10 -3 23 -11 21 -10 21 4 3 9 -10 13 -22 11 -26 -3 -4 2
-13 10 -20 12 -10 13 -8 9 12 -8 32 -12 59 -13 82 -1 15 -4 16 -15 7 -10 -8
-16 -9 -21 -1 -3 5 0 13 9 16 8 3 12 12 9 20 -3 8 -9 12 -13 9 -10 -6 -7 21 3
31 10 10 9 26 -1 20 -11 -6 -9 34 1 52 5 7 3 12 -4 12 -7 0 -9 3 -6 7 13 13
-33 51 -56 46 -13 -3 -18 -1 -11 4 8 6 8 16 -1 37 -8 18 -15 24 -19 17 -4 -6
-5 -15 -1 -20 3 -5 0 -13 -6 -16 -7 -5 -3 -15 11 -30 14 -15 18 -25 11 -30 -7
-3 -11 -3 -10 2 6 34 -5 18 -15 -22 -10 -41 -10 -54 0 -72 10 -15 10 -24 3
-28 -6 -4 -7 -14 -4 -24 15 -38 14 -53 -6 -58 -18 -5 -18 -6 -3 -18 12 -8 14
-14 6 -19 -7 -4 -12 -16 -12 -27 0 -10 -4 -19 -10 -19 -6 0 -6 9 0 25 5 14 5
27 0 30 -4 3 -12 -9 -16 -27 -6 -29 -8 -30 -15 -13 l-8 20 0 -20 c-1 -17 -3
-17 -11 -5 -6 10 -10 11 -10 3 0 -7 -9 -13 -21 -13 -16 0 -19 -4 -14 -21 4
-13 3 -19 -2 -16 -14 9 -53 -21 -53 -40 0 -9 -3 -14 -6 -11 -3 3 -16 -5 -30
-19 -13 -13 -28 -22 -33 -18 -16 9 -61 -14 -71 -37 -7 -18 -9 -19 -9 -5 -1 20
-9 21 -45 7 -14 -5 -26 -17 -26 -27 0 -15 -1 -15 -13 2 -9 12 -19 15 -28 10
-25 -16 -115 -22 -143 -10 -12 5 -21 3 -27 -6 -7 -11 -9 -10 -9 4 0 16 -8 18
-47 16 -27 -1 -56 2 -65 6 -10 4 -24 5 -32 2 -8 -3 -17 -3 -20 1 -4 3 -14 7
-24 8 -9 1 -26 5 -37 9 -12 4 -15 3 -8 -2 7 -5 9 -14 4 -22 -6 -9 -10 -6 -15
13 -6 25 -26 37 -26 15 0 -6 -7 -3 -16 6 -13 12 -19 13 -24 4 -5 -8 -10 -5
-15 10 -7 24 -15 26 -34 9 -10 -9 -12 -9 -7 -1 9 17 -15 28 -25 12 -5 -9 -9
-9 -9 -2 0 15 -69 55 -81 47 -5 -3 -8 0 -7 8 2 7 -4 13 -12 13 -8 0 -20 9 -26
20 -6 11 -16 19 -22 17 -7 -1 -11 3 -10 10 2 6 -6 14 -17 16 -11 2 -31 13 -44
23 -20 16 -27 17 -40 7 -14 -12 -14 -11 -3 4 14 17 9 38 -9 38 -6 0 -7 -4 -4
-10 3 -5 -1 -20 -9 -32 -9 -12 -16 -17 -16 -10 0 6 -5 12 -11 12 -5 0 -7 -6
-3 -12 4 -7 3 -9 -1 -5 -16 14 -14 36 3 30 11 -5 13 -3 7 8 -8 12 -6 12 8 0
18 -14 18 -13 8 38 -1 2 -7 -2 -15 -8 -16 -14 -25 -4 -21 22 2 9 -1 15 -6 11
-5 -3 -9 1 -9 8 -1 7 -9 3 -20 -10 -12 -15 -21 -19 -26 -11 -5 8 -9 7 -16 -2
-8 -11 -9 -11 -5 1 2 8 12 14 21 12 25 -4 33 28 11 44 -10 8 -15 14 -11 14 8
0 -24 62 -39 72 -5 4 -6 8 -2 8 11 0 -20 42 -71 100 -22 24 -38 48 -36 52 6 9
7 9 -28 -3z m32 -40 c12 -8 10 -9 -9 -4 -17 5 -22 4 -16 -5 5 -9 4 -11 -4 -6
-6 4 -9 12 -6 17 8 12 16 11 35 -2z m-147 -65 c-7 -3 -10 -11 -7 -19 7 -17
-12 -29 -22 -14 -5 8 -3 9 6 4 10 -6 12 -4 7 7 -6 18 0 28 17 27 7 0 6 -2 -1
-5z m-48 -22 c-3 -3 -11 0 -18 7 -9 10 -8 11 6 5 10 -3 15 -9 12 -12z m275 14
c0 -2 -7 -7 -16 -10 -8 -3 -12 -2 -9 4 6 10 25 14 25 6z m-209 -29 c-10 -9
-11 -8 -5 6 3 10 9 15 12 12 3 -3 0 -11 -7 -18z m1746 17 c-3 -3 -12 -4 -19
-1 -8 3 -5 6 6 6 11 1 17 -2 13 -5z m-1510 -66 c-3 -8 -6 -5 -6 6 -1 11 2 17
5 13 3 -3 4 -12 1 -19z m-47 2 c0 -5 -5 -10 -11 -10 -5 0 -7 5 -4 10 3 6 8 10
11 10 2 0 4 -4 4 -10z m1497 -19 c0 -11 -5 -18 -9 -15 -4 3 -5 11 -1 19 7 21
12 19 10 -4z m-1427 -11 c0 -5 -4 -10 -10 -10 -5 0 -10 5 -10 10 0 6 5 10 10
10 6 0 10 -4 10 -10z m-274 -117 c-10 -10 -35 18 -29 33 4 12 8 11 20 -6 8
-12 12 -24 9 -27z m1819 -13 c3 -6 -1 -7 -9 -4 -18 7 -21 14 -7 14 6 0 13 -4
16 -10z m-1352 -69 c-4 -4 -11 -10 -14 -14 -4 -5 -6 3 -5 16 1 20 4 23 14 15
7 -6 9 -14 5 -17z m11 -36 c-4 -8 -8 -15 -10 -15 -2 0 -4 7 -4 15 0 8 4 15 10
15 5 0 7 -7 4 -15z m-417 -21 c-3 -3 -12 -4 -19 -1 -8 3 -5 6 6 6 11 1 17 -2
13 -5z m578 -43 c-3 -2 -11 1 -18 7 -8 7 -18 8 -22 4 -5 -4 -5 -1 -1 5 5 10
11 10 26 1 11 -7 17 -14 15 -17z m902 4 c0 -8 -4 -15 -9 -15 -10 0 -11 14 -1
23 9 10 10 9 10 -8z m-922 -23 c-3 -3 -11 0 -18 7 -9 10 -8 11 6 5 10 -3 15
-9 12 -12z m-525 -25 c0 -5 -7 -6 -16 -3 -12 5 -14 1 -9 -17 5 -19 4 -20 -5
-4 -6 9 -9 21 -6 25 7 12 36 11 36 -1z m1340 -22 c0 -2 -6 -5 -13 -8 -8 -3
-14 1 -14 8 0 7 6 11 14 8 7 -3 13 -6 13 -8z m-1335 -5 c3 -5 1 -10 -4 -10 -6
0 -11 5 -11 10 0 6 2 10 4 10 3 0 8 -4 11 -10z m770 -20 c3 -5 1 -10 -4 -10
-6 0 -11 5 -11 10 0 6 2 10 4 10 3 0 8 -4 11 -10z m937 -32 c-8 -8 -9 -4 -5
13 4 13 8 18 11 10 2 -7 -1 -18 -6 -23z m39 17 c5 4 6 -1 3 -9 -9 -23 -20 -19
-21 7 0 12 1 16 4 9 3 -6 9 -10 14 -7z m-121 -85 c-8 -5 -19 -10 -25 -10 -5 0
-3 5 5 10 8 5 20 10 25 10 6 0 3 -5 -5 -10z m-77 -15 c4 -8 3 -16 -1 -19 -4
-3 -9 4 -9 15 -2 23 3 25 10 4z m32 6 c3 -5 2 -12 -3 -15 -5 -3 -9 1 -9 9 0
17 3 19 12 6z m-15 -41 c0 -5 -5 -10 -11 -10 -5 0 -7 5 -4 10 3 6 8 10 11 10
2 0 4 -4 4 -10z m-1087 -55 c-3 -9 -8 -14 -10 -11 -3 3 -2 9 2 15 9 16 15 13
8 -4z m-258 -14 c-3 -6 -11 -11 -16 -11 -5 0 -4 6 3 14 14 16 24 13 13 -3z"/>
<path d="M1711 841 c-10 -6 -10 -10 -1 -16 13 -8 24 -1 19 14 -3 6 -10 7 -18
2z"/>
<path d="M1610 769 c0 -5 5 -7 10 -4 6 3 10 8 10 11 0 2 -4 4 -10 4 -5 0 -10
-5 -10 -11z"/>
<path d="M1266 638 c-11 -15 -16 -18 -16 -8 0 9 -3 11 -8 5 -4 -5 -16 -10 -27
-10 -12 0 -19 -6 -17 -14 2 -8 -3 -11 -11 -8 -8 3 -14 -3 -15 -16 -1 -16 1
-18 7 -8 5 7 13 11 19 7 6 -3 13 2 15 11 4 14 5 13 6 -4 1 -22 -3 -25 -34 -25
-30 0 -34 2 -29 20 4 10 2 13 -3 7 -4 -5 -15 -11 -23 -13 -8 -2 -16 -7 -18
-12 -2 -5 -10 -6 -18 -3 -8 3 -14 1 -14 -4 0 -5 -18 -8 -40 -6 -22 1 -40 -2
-40 -8 0 -5 6 -9 13 -9 8 0 7 -4 -3 -10 -13 -8 -8 -14 11 -12 4 1 4 -24 0 -47
-1 -3 -11 5 -24 17 -13 12 -27 19 -31 15 -4 -4 -4 1 0 11 6 15 4 17 -6 11 -8
-5 -11 -4 -6 3 3 6 15 9 26 7 13 -3 17 1 13 12 -4 11 -8 11 -13 3 -6 -9 -9 -9
-15 -1 -5 9 -11 9 -22 0 -11 -10 -16 -10 -23 0 -5 9 -9 10 -14 2 -4 -6 -12 -9
-17 -6 -5 4 -9 1 -9 -4 0 -6 -7 -11 -16 -11 -8 0 -13 -4 -9 -9 3 -5 1 -12 -5
-16 -15 -9 -12 -25 4 -25 8 0 17 -7 20 -16 9 -25 8 -25 -20 1 -25 23 -32 24
-123 20 -53 -2 -105 -6 -116 -9 -11 -2 -22 -5 -24 -5 -2 -1 3 -9 10 -18 12
-15 12 -16 -8 -11 -13 4 -24 1 -27 -7 -4 -10 2 -11 24 -5 16 5 34 11 40 15 5
3 20 -1 32 -9 12 -9 29 -16 38 -16 13 0 13 2 1 9 -8 5 -16 17 -17 25 -1 9 2
14 7 10 5 -3 8 -8 6 -12 -7 -12 32 -42 39 -31 4 6 1 15 -5 19 -9 5 -8 10 4 20
22 18 30 5 17 -25 -12 -27 -4 -33 17 -12 10 8 12 8 7 0 -4 -8 0 -11 14 -8 21
4 45 -26 32 -40 -4 -5 0 -6 8 -3 11 4 16 -1 17 -14 2 -24 39 -53 68 -53 13 0
19 -6 17 -18 -3 -18 14 -24 20 -6 5 16 35 0 41 -23 3 -11 10 -17 16 -13 15 9
14 28 -1 19 -7 -4 -9 -3 -5 1 4 5 14 10 22 11 11 2 12 -2 5 -16 -14 -26 -13
-53 2 -44 6 4 8 3 5 -3 -9 -14 12 -75 23 -68 4 3 11 -2 14 -11 3 -9 11 -12 18
-8 7 4 9 3 5 -1 -11 -13 -38 -15 -31 -3 4 7 2 8 -4 4 -6 -4 -9 -13 -6 -21 4
-8 11 -12 18 -8 6 4 6 0 -2 -9 -11 -14 -9 -19 10 -32 12 -9 17 -16 10 -16 -7
0 -4 -8 7 -19 19 -19 37 -20 335 -20 l316 -1 -13 28 c-8 15 -12 33 -9 41 3 8
-1 12 -9 9 -8 -3 -13 -14 -12 -24 1 -10 0 -13 -3 -6 -3 6 -11 9 -17 5 -8 -5
-8 -2 0 9 7 8 9 19 5 23 -4 5 -2 5 5 1 14 -8 27 10 13 19 -6 4 -8 10 -5 15 6
10 -15 73 -28 82 -6 3 -17 4 -24 1 -8 -3 -21 4 -29 15 -8 12 -22 19 -34 17
-11 -2 -23 1 -26 7 -4 7 -2 8 4 4 7 -4 12 -1 12 6 0 9 3 9 10 -2 5 -8 10 -10
10 -5 -1 6 -7 18 -14 28 -12 16 -15 16 -23 4 -7 -13 -10 -13 -23 1 -13 14 -12
15 5 8 18 -7 18 -6 -1 15 -10 12 -13 19 -6 15 15 -9 17 20 2 29 -5 3 -10 15
-10 26 0 10 -3 18 -7 18 -22 -4 -43 2 -43 12 0 5 5 7 11 3 21 -13 -10 34 -33
50 -12 9 -19 16 -14 16 5 0 -1 8 -12 19 -12 10 -19 21 -15 25 3 3 1 6 -5 6 -6
0 -14 9 -17 20 -3 11 -13 20 -21 20 -8 0 -17 7 -20 15 -4 8 -10 12 -16 9 -5
-3 -4 -13 4 -22 9 -12 6 -11 -10 2 -23 20 -30 32 -12 21 21 -13 9 12 -15 33
-14 13 -23 27 -20 32 12 20 -4 9 -19 -12z m-6 -57 c0 -5 -7 -12 -16 -15 -14
-5 -15 -4 -4 9 14 17 20 19 20 6z m40 -16 c5 3 11 1 14 -4 4 -5 -2 -8 -11 -6
-10 2 -22 4 -26 4 -5 1 -5 6 -1 13 6 9 9 9 12 0 2 -7 8 -10 12 -7z m96 -81 c1
-9 0 -13 -4 -10 -3 4 -7 14 -8 22 -1 9 0 13 4 10 3 -4 7 -14 8 -22z m-729 -26
c-3 -8 -6 -5 -6 6 -1 11 2 17 5 13 3 -3 4 -12 1 -19z m-37 -2 c-7 -7 -13 -7
-20 0 -6 6 -3 10 10 10 13 0 16 -4 10 -10z m224 -12 c5 -14 4 -15 -9 -4 -17
14 -19 20 -6 20 5 0 12 -7 15 -16z m-4 -49 c0 -4 -9 4 -20 18 -11 14 -20 28
-20 32 0 4 9 -4 20 -18 11 -14 20 -28 20 -32z m609 39 c4 3 8 -1 8 -8 0 -22
-23 -14 -24 8 -1 12 1 15 4 8 3 -6 8 -10 12 -8z m-482 -130 c-3 -3 -12 -4 -19
-1 -8 3 -5 6 6 6 11 1 17 -2 13 -5z m688 -132 c-3 -3 -11 0 -18 7 -9 10 -8 11
6 5 10 -3 15 -9 12 -12z m-30 -2 c3 -5 1 -10 -4 -10 -6 0 -11 5 -11 10 0 6 2
10 4 10 3 0 8 -4 11 -10z m55 -10 c0 -5 -5 -10 -11 -10 -5 0 -7 5 -4 10 3 6 8
10 11 10 2 0 4 -4 4 -10z m-573 -59 c0 -11 -7 -17 -14 -14 -9 4 -9 8 0 19 16
17 16 17 14 -5z m-11 -33 c3 -4 -1 -5 -10 -4 -8 1 -18 5 -22 8 -3 4 1 5 10 4
8 -1 18 -5 22 -8z"/>
<path d="M980 522 c0 -5 10 -17 21 -28 22 -19 22 -19 10 3 -12 24 -31 39 -31
25z"/>
<path d="M3328 523 c7 -3 16 -2 19 1 4 3 -2 6 -13 5 -11 0 -14 -3 -6 -6z"/>
<path d="M614 398 c3 -11 0 -18 -7 -18 -7 -1 -1 -7 13 -15 l25 -15 -30 6 c-21
4 -26 3 -16 -4 16 -12 -3 -27 -24 -18 -9 3 -12 0 -8 -9 3 -8 8 -13 12 -11 3 2
6 -12 5 -32 -2 -37 20 -73 29 -49 3 6 6 2 6 -11 1 -14 10 -26 25 -32 13 -5 28
-15 33 -23 10 -16 54 -47 67 -47 5 0 1 7 -10 16 -18 14 -18 15 4 4 16 -8 22
-8 22 0 0 6 5 8 10 5 6 -3 10 -11 10 -16 0 -6 -4 -8 -9 -5 -5 3 -11 0 -13 -7
-7 -17 2 -38 13 -32 5 4 6 -2 2 -11 -5 -14 -3 -16 11 -11 11 5 15 3 10 -5 -5
-8 -2 -9 10 -5 9 4 14 3 11 -2 -12 -21 19 -23 36 -3 15 19 18 20 23 5 5 -12
10 -13 18 -5 6 6 16 8 23 6 7 -3 15 1 18 10 6 16 -19 30 -28 16 -4 -6 -11 -10
-18 -10 -6 0 -2 6 8 14 11 8 22 13 26 11 3 -2 6 2 6 10 0 8 -5 15 -11 15 -6 0
-4 5 4 10 9 6 11 10 3 10 -7 0 -10 7 -6 16 3 8 -4 25 -15 37 -20 21 -22 25
-22 48 0 6 -7 8 -17 4 -14 -5 -15 -3 -6 6 13 13 6 42 -8 33 -5 -3 -9 -1 -9 5
0 17 -32 42 -47 37 -8 -4 -11 -1 -8 5 4 6 14 8 24 5 9 -4 -1 10 -21 29 -38 35
-58 44 -58 25 0 -5 7 -10 15 -10 8 0 15 -4 15 -10 0 -5 -8 -6 -17 -3 -16 6
-16 5 -5 -10 14 -17 46 -12 35 6 -4 6 -1 7 7 2 10 -6 10 -10 -2 -19 -8 -6 -16
-15 -17 -21 -2 -5 -5 -12 -8 -15 -2 -3 -3 2 -1 10 2 9 -4 15 -13 14 -11 -1
-15 6 -14 21 2 12 0 27 -4 32 -9 15 -41 24 -54 16 -17 -11 -41 -10 -50 2 -5 6
-7 3 -3 -7z m197 -131 c-10 -9 -11 -8 -5 6 3 10 9 15 12 12 3 -3 0 -11 -7 -18z
m-167 -40 c3 -16 1 -25 -5 -22 -5 4 -9 18 -9 32 0 32 7 27 14 -10z m50 -43 c9
-24 2 -26 -12 -4 -7 11 -8 20 -3 20 5 0 12 -7 15 -16z m197 -17 c-10 -9 -11
-8 -5 6 3 10 9 15 12 12 3 -3 0 -11 -7 -18z m0 -40 c-10 -9 -11 -8 -5 6 3 10
9 15 12 12 3 -3 0 -11 -7 -18z"/>
<path d="M205 320 c-3 -6 1 -7 9 -4 18 7 21 14 7 14 -6 0 -13 -4 -16 -10z"/>
<path d="M390 248 c-5 -18 -8 -29 -9 -37 0 -5 -8 -16 -16 -25 -8 -8 -16 -23
-18 -33 -1 -10 -6 -24 -10 -31 -12 -18 17 -44 32 -29 10 9 12 9 9 -3 -2 -10 5
-15 24 -15 15 1 25 -1 23 -4 -3 -2 3 -10 13 -17 12 -9 21 -9 30 -2 9 8 11 7 6
-6 -10 -25 21 -20 35 7 6 12 9 14 7 4 -4 -14 -1 -16 19 -13 16 3 28 -1 34 -12
7 -13 13 -14 22 -5 14 14 4 33 -17 33 -8 0 -13 4 -9 9 3 5 1 12 -4 15 -5 4
-13 1 -17 -5 -4 -8 -3 -9 4 -5 8 5 10 1 5 -9 -4 -13 -8 -14 -14 -4 -4 7 -3 22
3 33 11 20 10 20 -9 3 -19 -17 -33 -14 -33 7 0 6 5 4 11 -4 9 -12 10 -12 5 3
-3 10 -6 21 -6 24 0 3 -6 0 -14 -6 -12 -10 -13 -8 -9 10 4 15 3 20 -5 15 -7
-4 -12 -2 -12 4 0 6 -4 8 -10 5 -5 -3 -10 1 -10 9 0 8 -9 21 -20 29 -11 8 -17
18 -12 23 4 4 -1 2 -10 -5 -10 -7 -16 -17 -13 -21 3 -5 1 -19 -4 -32 -9 -21
-10 -21 -7 7 1 17 6 38 10 47 4 10 6 23 3 30 -3 7 -6 10 -7 6z m38 -113 c-3
-3 -9 2 -12 12 -6 14 -5 15 5 6 7 -7 10 -15 7 -18z m-35 -8 c4 3 7 1 7 -5 0
-6 -9 -10 -20 -9 -10 1 -17 3 -15 6 3 2 -1 11 -7 20 -10 12 -7 12 8 -2 11 -9
24 -14 27 -10z m74 -19 c-3 -8 -6 -5 -6 6 -1 11 2 17 5 13 3 -3 4 -12 1 -19z
m31 -43 c-3 -3 -9 2 -12 12 -6 14 -5 15 5 6 7 -7 10 -15 7 -18z m-41 0 c0 -8
-4 -12 -9 -9 -5 3 -6 10 -3 15 9 13 12 11 12 -6z"/>
<path d="M597 25 l-18 -25 40 2 c34 1 39 4 29 16 -8 9 -14 10 -16 3 -2 -6 -8
-9 -12 -6 -5 3 -7 12 -3 20 8 22 0 18 -20 -10z"/>
<path d="M847 32 c-9 -10 -14 -22 -11 -25 4 -4 13 1 21 11 10 13 12 13 8 2 -4
-11 2 -16 17 -17 18 -2 20 0 8 7 -10 7 -11 10 -2 10 6 0 12 5 12 11 0 5 -5 7
-11 3 -6 -3 -14 -1 -18 5 -5 8 -13 6 -24 -7z"/>
</g>
</svg>
